<?xml version="1.0" encoding="UTF-8" standalone="no"?>
<!-- Created with Inkscape (http://www.inkscape.org/) -->

<svg
   xmlns:dc="http://purl.org/dc/elements/1.1/"
   xmlns:cc="http://creativecommons.org/ns#"
   xmlns:rdf="http://www.w3.org/1999/02/22-rdf-syntax-ns#"
   xmlns:svg="http://www.w3.org/2000/svg"
   xmlns="http://www.w3.org/2000/svg"
   xmlns:sodipodi="http://sodipodi.sourceforge.net/DTD/sodipodi-0.dtd"
   xmlns:inkscape="http://www.inkscape.org/namespaces/inkscape"
   version="1.1"
   id="svg2"
   width="760"
   height="772"
   viewBox="0 0 760 772"
   sodipodi:docname="thriatlon.svg"
   inkscape:version="0.92.1 r15371">
  <metadata
     id="metadata8">
    <rdf:RDF>
      <cc:Work
         rdf:about="">
        <dc:format>image/svg+xml</dc:format>
        <dc:type
           rdf:resource="http://purl.org/dc/dcmitype/StillImage" />
        <dc:title></dc:title>
      </cc:Work>
    </rdf:RDF>
  </metadata>
  <defs
     id="defs6" />
  <sodipodi:namedview
     pagecolor="#ffffff"
     bordercolor="#666666"
     borderopacity="1"
     objecttolerance="10"
     gridtolerance="10"
     guidetolerance="10"
     inkscape:pageopacity="0"
     inkscape:pageshadow="2"
     inkscape:window-width="1366"
     inkscape:window-height="738"
     id="namedview4"
     showgrid="false"
     inkscape:zoom="0.30569948"
     inkscape:cx="-156.47458"
     inkscape:cy="386"
     inkscape:window-x="0"
     inkscape:window-y="30"
     inkscape:window-maximized="0"
     inkscape:current-layer="svg2" />
  <path
     style="fill:#000000;stroke-width:1.33333337"
     d="m 39.444295,471.06093 c -2.3251,-2.64814 -4.78725,-6.2872 -5.47146,-8.0868 -0.72538,-1.90791 -1.24402,-40.95146 -1.24402,-93.65183 v -90.37981 l 3.97372,-5.48556 c 7.90505,-10.9126 1.07096,-10.24788 105.359605,-10.24788 h 92.66667 l 4.71745,2.93412 c 2.5946,1.61377 6.0446,5.29546 7.66667,8.18154 l 2.94921,5.24742 -0.005,91.15178 c -0.005,89.89562 -0.0431,91.21434 -2.77136,95.68952 -6.20032,10.17046 2.83441,9.36839 -106.08553,9.41792 l -97.528185,0.0444 z m 156.915725,-5.38732 c 0.27694,-0.8445 -2.16628,-3.45275 -5.42938,-5.79614 -5.7858,-4.15505 -5.96936,-4.51369 -7.40284,-14.46456 -0.80846,-5.61212 -2.103,-16.50386 -2.87676,-24.20386 -1.5999,-15.92124 -2.14694,-17.11192 -15.83322,-34.4622 -5.18229,-6.56966 -9.42234,-13.10319 -9.42234,-14.51895 0,-1.41576 0.69996,-6.05944 1.55545,-10.31931 1.28503,-6.39858 2.23413,-8.11794 5.45885,-9.88904 2.14687,-1.17912 6.39691,-4.08846 9.44455,-6.46525 3.04763,-2.37677 7.64115,-4.70575 10.20781,-5.17549 7.04542,-1.28946 8.89992,-2.66935 9.82871,-7.31328 1.05451,-5.27258 -0.93096,-7.85648 -6.03693,-7.85648 -2.96251,0 -4.49122,1.02616 -6.45558,4.33333 -1.6637,2.80099 -4.73505,5.21448 -8.68548,6.82512 -3.36137,1.37048 -6.37013,2.23325 -6.6861,1.91727 -0.31599,-0.31599 1.04074,-5.09719 3.01497,-10.6249 3.40039,-9.52094 3.47391,-10.22677 1.39564,-13.39862 -1.77527,-2.70939 -4.56436,-3.89415 -14.61787,-6.20944 -15.21468,-3.5039 -20.59374,-3.55926 -31.89209,-0.32822 -13.17914,3.7689 -21.1986,7.65015 -21.1986,10.2597 0,1.24162 3.9,7.67236 8.66667,14.29049 6.96835,9.67501 8.66666,13.00792 8.66666,17.00815 0,5.4102 1.49607,6.60349 6.66667,5.31741 5.40089,-1.34333 5.02335,-6.68181 -1.24094,-17.54708 -2.98415,-5.17595 -5.42573,-9.99096 -5.42573,-10.70005 0,-0.70911 2.85,-1.1064 6.33334,-0.88288 l 6.33333,0.40638 1.48729,12 1.48731,12 -3.93328,7.28738 c -3.96382,7.34397 -4.21312,10.35301 -1.6798,20.27536 1.02127,4.00006 -3.84973,12.16992 -12.28541,20.6056 l -4.70928,4.70928 -21.750375,-0.4388 -21.75039,-0.43882 -4.19309,4 c -6.31155,6.0209 -10.01043,12.5292 -8.16793,14.37171 1.12424,1.12424 3.3884,0.58851 8.86528,-2.0976 9.13454,-4.48 13.96938,-4.52435 39.296345,-0.36043 16.18735,2.66131 19.76726,2.89628 22,1.44404 1.46666,-0.95397 6.26666,-7.18134 10.66666,-13.8386 4.4,-6.65726 8.7127,-12.12248 9.58378,-12.14494 0.87106,-0.0224 5.00204,3.7809 9.17993,8.45192 l 7.59617,8.49276 0.19655,13.1739 c 0.18064,12.10703 0.61357,14.14572 5.34587,25.17391 6.40538,14.92716 8.81358,17.70716 15.93249,18.39229 8.31096,0.79987 11.90655,0.43606 12.46309,-1.26106 z m -28.26768,-160.9902 c 7.33938,-11.2013 0.39775,-28.8077 -11.35792,-28.8077 -4.53198,0 -9.33894,5.8364 -9.33894,11.33895 0,6.29471 2.80385,11.48095 8.94264,16.54105 6.00645,4.95103 8.96505,5.18454 11.75422,0.9277 z m 115.9698,169.09977 c -6.5201,-3.38411 -10.95128,-8.44111 -12.57834,-14.35483 -1.09592,-3.98324 -1.41852,-30.64109 -1.14135,-94.31754 l 0.38636,-88.76491 3.54768,-5.36004 c 7.21297,-10.89777 2.43603,-10.39213 102.45232,-10.84465 60.56368,-0.27403 90.23237,0.0541 93.60657,1.03552 2.71696,0.79017 6.78851,2.99217 9.0479,4.89333 8.3893,7.05913 8.0122,2.22239 8.0122,102.76327 v 91.75669 l -3.37872,4.97224 c -1.8583,2.73473 -5.7344,6.17401 -8.61355,7.64284 -5.08663,2.595 -7.81272,2.67039 -96.28795,2.6624 -79.80734,-0.007 -91.54714,-0.26463 -95.05312,-2.08432 z m 51.24036,-23.87467 c 11.52887,-4.06761 20.85648,-13.26926 24.84523,-24.5097 3.59697,-10.13638 4.07591,-10.77611 22.55541,-30.12738 15.44047,-16.16889 18.0422,-18.37518 19.87495,-16.85413 1.88217,1.56207 1.61872,2.32271 -2.45155,7.07789 -11.47334,13.40402 -13.71182,30.057 -6.05712,45.06147 14.65639,28.72888 57.29511,28.11665 71.55396,-1.0274 9.3227,-19.05489 1.32386,-42.60145 -17.78821,-52.36409 -5.51933,-2.81934 -8.29833,-3.29544 -19.44451,-3.3313 -11.46982,-0.0369 -13.34085,-0.37789 -15.85192,-2.88897 -1.66586,-1.66585 -2.51134,-3.72213 -2.03782,-4.95611 0.72306,-1.88426 14.1221,-8.77974 17.06046,-8.77974 0.64208,0 1.16743,2.36458 1.16743,5.25464 0,2.89005 0.55172,5.59562 1.22605,6.01238 1.82738,1.12939 9.44062,-8.73936 9.44062,-12.23748 0,-2.99309 -4.20018,-8.36288 -6.54134,-8.36288 -0.6644,0 -2.05604,-2.55 -3.09256,-5.66666 -1.68089,-5.05427 -1.63118,-6.45918 0.45988,-13 2.77982,-8.6952 3.24032,-27.12372 0.79963,-32 -5.16409,-10.31742 -49.15521,-10.94132 -66.90349,-0.94887 -9.94412,5.59863 -14.51904,15.19847 -12.2074,25.61553 l 0.88764,4 h -13.70118 c -13.09665,0 -13.71958,0.12934 -14.11812,2.93026 -0.32266,2.26778 0.79767,3.54989 4.95551,5.67106 5.24175,2.67414 5.48904,3.12178 10.16659,18.40308 2.6368,8.61424 5.3647,17.42439 6.06201,19.5781 1.88592,5.82486 -0.23824,7.02832 -7.01309,3.97328 -8.6129,-3.88388 -26.42218,-3.59383 -34.42075,0.5606 -8.16541,4.24108 -14.23251,10.25729 -18.37101,18.21696 -6.81496,13.1073 -4.01367,33.17297 6.10916,43.76006 10.88185,11.38092 28.69238,15.9294 42.83554,10.9394 z m -16.97369,-32.96613 c -0.88,-0.88 -1.6,-3.16 -1.6,-5.06667 0,-4.42372 2.26313,-6.66666 6.72668,-6.66666 3.78923,0 7.93999,3.60622 7.93999,6.89833 0,5.03387 -9.39239,8.50928 -13.06667,4.835 z m 104.4756,-1.36335 c -1.14157,-1.62982 -2.0756,-3.63684 -2.0756,-4.46001 0,-2.51888 4.68883,-5.90997 8.17165,-5.90997 4.24292,0 6.49502,2.31161 6.49502,6.66666 0,1.90667 -0.72,4.18667 -1.6,5.06667 -2.65207,2.65207 -8.7044,1.90132 -10.99107,-1.36335 z m -60.62632,-19.8421 c -0.90172,-3.00967 -1.92745,-6.22255 -2.27941,-7.13974 -0.39246,-1.02273 2.09349,-2.83365 6.42844,-4.6829 3.8876,-1.65842 10.61546,-4.76316 14.95082,-6.89944 4.33535,-2.1363 8.31983,-3.71654 8.8544,-3.51164 0.93883,0.35981 -24.41377,27.70584 -25.6862,27.70584 -0.3457,0 -1.36633,-2.46246 -2.26805,-5.47212 z m -8.1484,-25.94659 c -2.14543,-5.64288 -1.62004,-7.24924 2.36579,-7.23328 5.49169,0.022 13.66666,1.54652 13.66666,2.54868 0,0.48463 -3.3146,2.50676 -7.36578,4.49365 l -7.3658,3.61252 z m 7.8042,-13.90164 c -6.35888,-0.37381 -11.82308,-0.97965 -12.14267,-1.34632 -0.71265,-0.81761 -6.29574,-17.48295 -6.29574,-18.79257 0,-0.98615 13.24621,-4.53152 13.79032,-3.69102 0.17217,0.26598 3.8611,4.98359 8.19761,10.48359 10.45472,13.25972 10.29904,13.02715 9.07681,13.56095 -0.58561,0.25576 -6.26746,0.15917 -12.62633,-0.21463 z m 42.89492,-0.63029 c 0,-0.33952 -1.19348,-3.6452 -2.65219,-7.34596 l -2.6522,-6.72867 8.10698,-6.32069 c 10.60388,-8.26746 11.0898,-8.3854 9.97072,-2.42023 -0.73371,3.91099 -0.22798,6.1498 2.48614,11.00589 1.87398,3.3529 3.40722,6.2775 3.40722,6.4991 0,0.22161 -3.32251,1.64604 -7.38335,3.1654 -7.09501,2.65458 -11.28332,3.45085 -11.28332,2.14516 z m -19.90484,-23.71603 c -0.64469,-1.65 -2.42985,-5.89975 -3.967,-9.44388 -1.53716,-3.54412 -2.79483,-7.06548 -2.79483,-7.82521 0,-1.25587 25.11131,-0.30028 26.4913,1.0081 0.73362,0.69556 -16.02366,19.26099 -17.38508,19.26099 -0.64472,0 -1.6997,-1.35 -2.34439,-3 z m 67.06363,-23.01593 c 2.80213,-2.80212 4.0222,-12.47854 2.18352,-17.3174 -4.6062,-12.1221 -17.88223,-13.94268 -21.77006,-2.98542 -1.57864,4.44914 0.85167,10.71436 6.40391,16.50899 5.82519,6.07951 9.76353,7.21292 13.18263,3.79383 z m 63.75576,163.37556 c -10.89108,-7.88947 -10.24788,-1.48586 -10.24788,-102.0263 0,-49.13333 0.44982,-90.93709 0.99961,-92.89724 1.43133,-5.10312 7.48989,-11.83148 12.56197,-13.95072 3.53283,-1.47612 21.59398,-1.8187 95.88072,-1.8187 90.40115,0 91.58906,0.0344 96.49123,2.78952 2.7298,1.53424 6.56149,5.25433 8.51487,8.26689 l 3.5516,5.47737 v 90.48743 c 0,64.27424 -0.43344,91.33111 -1.49626,93.39977 -2.21194,4.30542 -8.0051,10.22324 -12.1042,12.36472 -2.99834,1.5664 -19.07484,1.88096 -96.13328,1.88096 h -92.53282 z m 35.5821,-61.93838 c 2.03367,-1.05165 4.47319,-2.84665 5.42118,-3.9889 1.53712,-1.85212 2.15084,-1.71732 5.67232,1.24581 5.0101,4.21573 8.72246,5.12532 17.83426,4.36969 5.7235,-0.47464 8.15926,-1.42749 11.27176,-4.40945 l 3.9705,-3.80397 4.04469,3.87505 c 3.48415,3.33803 5.28579,3.94327 13,4.36717 8.25132,0.45342 9.39241,0.17379 14.51568,-3.55697 4.87143,-3.54739 5.76801,-3.79888 7.23623,-2.0298 3.0397,3.66263 8.97054,5.84345 15.8915,5.84345 7.18886,0 10.78044,-1.30318 15.54878,-5.64176 2.89896,-2.63768 2.90842,-2.63721 6,0.29467 1.70305,1.61508 4.4855,3.47889 6.18325,4.1418 5.14389,2.00852 15.30565,1.37335 20.26733,-1.26684 5.33307,-2.83781 10.59183,-11.09241 10.62394,-16.67625 0.0215,-3.72588 -0.0949,-3.78822 -4.97807,-2.66667 -2.75,0.63161 -9.58964,1.14839 -15.19919,1.14839 -9.51558,0 -10.56097,-0.2909 -15.59672,-4.33995 -4.25226,-3.41909 -5.62454,-3.94841 -6.46746,-2.49468 -2.17606,3.75285 -10.36195,7.49132 -16.4033,7.49132 -5.54749,0 -8.36025,-1.19424 -16.19205,-6.87487 -1.79755,-1.3038 -2.95589,-0.94724 -6.43611,1.98116 -5.21242,4.38598 -9.08868,5.4327 -16.87045,4.55558 -3.96403,-0.4468 -7.70237,-2.03982 -10.99343,-4.68458 l -4.98685,-4.00754 -3.19803,3.32274 c -4.05061,4.20858 -8.03638,5.71879 -15.07654,5.7125 -5.09946,-0.004 -8.03171,-1.28696 -15.86471,-6.93838 -1.92744,-1.39062 -2.92171,-1.0383 -6.35645,2.25239 -3.43836,3.29415 -5.39202,3.98495 -12.56094,4.44143 -5.23153,0.33312 -11.14058,-0.23664 -15.39818,-1.48472 -8.11882,-2.37996 -9.03647,-1.48714 -6.84322,6.65801 1.35911,5.04731 5.98208,10.51068 11.44363,13.52391 3.817,2.10592 16.14709,1.8895 20.49665,-0.35974 z m 112.0953,-32.54441 4.64086,-3.75616 5.3836,3.76223 c 6.76666,4.72876 14.05026,6.43304 14.05026,3.2876 0,-1.18955 -2.20716,-4.6059 -4.90482,-7.59187 l -4.90481,-5.42904 5.60991,-4.90813 c 6.62342,-5.79487 8.62817,-11.34879 6.18976,-17.14806 -4.20779,-10.00737 -19.387,-6.35406 -23.33778,5.6169 -0.83916,2.54266 -1.87882,4.62302 -2.31037,4.62302 -0.43155,0 -6.96536,-3.01106 -14.51957,-6.69126 -17.729,-8.63704 -20.90836,-9.28268 -25.37835,-5.15362 -4.31561,3.98646 -16.09159,18.63832 -21.16775,26.33724 l -3.84106,5.8257 3.0968,2.50764 c 1.70324,1.3792 3.7991,2.50764 4.65749,2.50764 0.85837,0 5.14191,-3.64635 9.51895,-8.103 4.37705,-4.45666 10.20721,-9.90623 12.95593,-12.11019 l 4.99767,-4.00719 4.71725,2.91543 c 5.12509,3.16748 5.22939,2.48344 -1.68988,11.08451 -3.62696,4.50852 -3.08688,5.6912 4.14179,9.06968 7.36618,3.44276 15.82873,2.43194 22.09412,-2.63907 z"
     id="path12"
     inkscape:connector-curvature="0" />
  <path
     style="fill:#000000;stroke-width:1.33333337"
     d="m -728.61017,429.66862 c -6.5201,-3.38411 -10.95128,-8.44111 -12.57834,-14.35483 -1.09592,-3.98324 -1.41852,-30.64109 -1.14135,-94.31754 l 0.38636,-88.76491 3.54768,-5.36004 c 7.21297,-10.89777 2.43603,-10.39213 102.45232,-10.84465 60.56368,-0.27403 90.23237,0.0541 93.60657,1.03552 2.71696,0.79017 6.78851,2.99217 9.0479,4.89333 8.3893,7.05913 8.0122,2.22239 8.0122,102.76327 v 91.75669 l -3.37872,4.97224 c -1.8583,2.73473 -5.7344,6.17401 -8.61355,7.64284 -5.08663,2.595 -7.81272,2.67039 -96.28795,2.6624 -79.80734,-0.007 -91.54714,-0.26463 -95.05312,-2.08432 z m 51.24036,-23.87467 c 11.52887,-4.06761 20.85648,-13.26926 24.84523,-24.5097 3.59697,-10.13638 4.07591,-10.77611 22.55541,-30.12738 15.44047,-16.16889 18.0422,-18.37518 19.87495,-16.85413 1.88217,1.56207 1.61872,2.32271 -2.45155,7.07789 -11.47334,13.40402 -13.71182,30.057 -6.05712,45.06147 14.65639,28.72888 57.29511,28.11665 71.55396,-1.0274 9.3227,-19.05489 1.32386,-42.60145 -17.78821,-52.36409 -5.51933,-2.81934 -8.29833,-3.29544 -19.44451,-3.3313 -11.46982,-0.0369 -13.34085,-0.37789 -15.85192,-2.88897 -1.66586,-1.66585 -2.51134,-3.72213 -2.03782,-4.95611 0.72306,-1.88426 14.1221,-8.77974 17.06046,-8.77974 0.64208,0 1.16743,2.36458 1.16743,5.25464 0,2.89005 0.55172,5.59562 1.22605,6.01238 1.82738,1.12939 9.44062,-8.73936 9.44062,-12.23748 0,-2.99309 -4.20018,-8.36288 -6.54134,-8.36288 -0.6644,0 -2.05604,-2.55 -3.09256,-5.66666 -1.68089,-5.05427 -1.63118,-6.45918 0.45988,-13 2.77982,-8.6952 3.24032,-27.12372 0.79963,-32 -5.16409,-10.31742 -49.15521,-10.94132 -66.90349,-0.94887 -9.94412,5.59863 -14.51904,15.19847 -12.2074,25.61553 l 0.88764,4 h -13.70118 c -13.09665,0 -13.71958,0.12934 -14.11812,2.93026 -0.32266,2.26778 0.79767,3.54989 4.95551,5.67106 5.24175,2.67414 5.48904,3.12178 10.16659,18.40308 2.6368,8.61424 5.3647,17.42439 6.06201,19.5781 1.88592,5.82486 -0.23824,7.02832 -7.01309,3.97328 -8.6129,-3.88388 -26.42218,-3.59383 -34.42075,0.5606 -8.16541,4.24108 -14.23251,10.25729 -18.37101,18.21696 -6.81496,13.1073 -4.01367,33.17297 6.10916,43.76006 10.88185,11.38092 28.69238,15.9294 42.83554,10.9394 z m -16.97369,-32.96613 c -0.88,-0.88 -1.6,-3.16 -1.6,-5.06667 0,-4.42372 2.26313,-6.66666 6.72668,-6.66666 3.78923,0 7.93999,3.60622 7.93999,6.89833 0,5.03387 -9.39239,8.50928 -13.06667,4.835 z m 104.4756,-1.36335 c -1.14157,-1.62982 -2.0756,-3.63684 -2.0756,-4.46001 0,-2.51888 4.68883,-5.90997 8.17165,-5.90997 4.24292,0 6.49502,2.31161 6.49502,6.66666 0,1.90667 -0.72,4.18667 -1.6,5.06667 -2.65207,2.65207 -8.7044,1.90132 -10.99107,-1.36335 z m -60.62632,-19.8421 c -0.90172,-3.00967 -1.92745,-6.22255 -2.27941,-7.13974 -0.39246,-1.02273 2.09349,-2.83365 6.42844,-4.6829 3.8876,-1.65842 10.61546,-4.76316 14.95082,-6.89944 4.33535,-2.1363 8.31983,-3.71654 8.8544,-3.51164 0.93883,0.35981 -24.41377,27.70584 -25.6862,27.70584 -0.3457,0 -1.36633,-2.46246 -2.26805,-5.47212 z m -8.1484,-25.94659 c -2.14543,-5.64288 -1.62004,-7.24924 2.36579,-7.23328 5.49169,0.022 13.66666,1.54652 13.66666,2.54868 0,0.48463 -3.3146,2.50676 -7.36578,4.49365 l -7.3658,3.61252 z m 7.8042,-13.90164 c -6.35888,-0.37381 -11.82308,-0.97965 -12.14267,-1.34632 -0.71265,-0.81761 -6.29574,-17.48295 -6.29574,-18.79257 0,-0.98615 13.24621,-4.53152 13.79032,-3.69102 0.17217,0.26598 3.8611,4.98359 8.19761,10.48359 10.45472,13.25972 10.29904,13.02715 9.07681,13.56095 -0.58561,0.25576 -6.26746,0.15917 -12.62633,-0.21463 z m 42.89492,-0.63029 c 0,-0.33952 -1.19348,-3.6452 -2.65219,-7.34596 l -2.6522,-6.72867 8.10698,-6.32069 c 10.60388,-8.26746 11.0898,-8.3854 9.97072,-2.42023 -0.73371,3.91099 -0.22798,6.1498 2.48614,11.00589 1.87398,3.3529 3.40722,6.2775 3.40722,6.4991 0,0.22161 -3.32251,1.64604 -7.38335,3.1654 -7.09501,2.65458 -11.28332,3.45085 -11.28332,2.14516 z m -19.90484,-23.71603 c -0.64469,-1.65 -2.42985,-5.89975 -3.967,-9.44388 -1.53716,-3.54412 -2.79483,-7.06548 -2.79483,-7.82521 0,-1.25587 25.11131,-0.30028 26.4913,1.0081 0.73362,0.69556 -16.02366,19.26099 -17.38508,19.26099 -0.64472,0 -1.6997,-1.35 -2.34439,-3 z m 67.06363,-23.01593 c 2.80213,-2.80212 4.0222,-12.47854 2.18352,-17.3174 -4.6062,-12.1221 -17.88223,-13.94268 -21.77006,-2.98542 -1.57864,4.44914 0.85167,10.71436 6.40391,16.50899 5.82519,6.07951 9.76353,7.21292 13.18263,3.79383 z"
     id="path12-3"
     inkscape:connector-curvature="0"
     sodipodi:nodetypes="csscssccsccscccssccsscsccsscsscccsscscscssscscssssscsssscsscccssccscccccscsccssccscscsscscssscccs" />
</svg>
